<svg xmlns="http://www.w3.org/2000/svg" width="96" height="96" viewBox="0 0 96 96" fill="none">
  <defs>
    <linearGradient id="bg" x1="10" y1="8" x2="88" y2="88" gradientUnits="userSpaceOnUse">
      <stop stop-color="#0E223A"/>
      <stop offset="1" stop-color="#134E79"/>
    </linearGradient>
    <linearGradient id="orb" x1="27" y1="24" x2="68" y2="70" gradientUnits="userSpaceOnUse">
      <stop stop-color="#83F2DE"/>
      <stop offset="1" stop-color="#76AEFF"/>
    </linearGradient>
    <linearGradient id="path" x1="31" y1="30" x2="69" y2="60" gradientUnits="userSpaceOnUse">
      <stop stop-color="#E8F8FF"/>
      <stop offset="1" stop-color="#C7E6FF"/>
    </linearGradient>
  </defs>

  <rect x="8" y="8" width="80" height="80" rx="22" fill="url(#bg)"/>
  <path d="M24 27C24 22.6 27.6 19 32 19H64C68.4 19 72 22.6 72 27V50C72 54.4 68.4 58 64 58H47L36 67V58H32C27.6 58 24 54.4 24 50V27Z" fill="url(#orb)" opacity="0.23"/>
  <path d="M31 35H65" stroke="#E7F6FF" stroke-width="3" stroke-linecap="round"/>
  <path d="M31 43H56" stroke="#D6EEFF" stroke-width="3" stroke-linecap="round"/>
  <path d="M48 57L56 49L61 54L69 45" stroke="url(#path)" stroke-width="4" stroke-linecap="round" stroke-linejoin="round"/>
  <circle cx="69" cy="45" r="3.2" fill="#CDEBFF"/>
  <circle cx="48" cy="57" r="2.7" fill="#BCEFE4"/>
  <rect x="18" y="18" width="60" height="60" rx="16" stroke="rgba(255,255,255,0.18)"/>
</svg>
